<?xml version="1.0" encoding="UTF-8" standalone="no"?>
<!-- Created with Inkscape (http://www.inkscape.org/) -->

<svg
   xmlns:dc="http://purl.org/dc/elements/1.1/"
   xmlns:cc="http://creativecommons.org/ns#"
   xmlns:rdf="http://www.w3.org/1999/02/22-rdf-syntax-ns#"
   xmlns:svg="http://www.w3.org/2000/svg"
   xmlns="http://www.w3.org/2000/svg"
   xmlns:sodipodi="http://sodipodi.sourceforge.net/DTD/sodipodi-0.dtd"
   xmlns:inkscape="http://www.inkscape.org/namespaces/inkscape"
   width="210mm"
   height="297mm"
   viewBox="0 0 744.09448819 1052.3622047"
   id="svg2"
   version="1.1"
   inkscape:version="0.91 r13725"
   sodipodi:docname="hand.svg">
  <defs
     id="defs4" />
  <sodipodi:namedview
     id="base"
     pagecolor="#ffffff"
     bordercolor="#666666"
     borderopacity="1.0"
     inkscape:pageopacity="0.0"
     inkscape:pageshadow="2"
     inkscape:zoom="0.98994949"
     inkscape:cx="434.27315"
     inkscape:cy="655.68581"
     inkscape:document-units="px"
     inkscape:current-layer="layer1"
     showgrid="false"
     inkscape:window-width="1920"
     inkscape:window-height="1017"
     inkscape:window-x="-8"
     inkscape:window-y="-8"
     inkscape:window-maximized="1" />
  <metadata
     id="metadata7">
    <rdf:RDF>
      <cc:Work
         rdf:about="">
        <dc:format>image/svg+xml</dc:format>
        <dc:type
           rdf:resource="http://purl.org/dc/dcmitype/StillImage" />
        <dc:title></dc:title>
      </cc:Work>
    </rdf:RDF>
  </metadata>
  <g
     inkscape:label="Capa 1"
     inkscape:groupmode="layer"
     id="layer1">
    <g
       id="g4147"
       transform="matrix(6.6829405,0,0,5.8932902,-287.99345,-709.89747)">
      <path
         style="fill:#4caf50;fill-opacity:1"
         d="m 136.08085,251.64096 c -8.0956,-8.45615 -12.86557,-12.50471 -14.72738,-12.5 -1.51453,0.004 -4.1313,-0.62073 -5.81506,-1.3879 -2.58286,-1.17683 -4.09653,-0.83491 -9.68401,2.1875 -5.23831,2.83354 -6.843691,4.44923 -7.680107,7.72945 -0.757415,2.97039 -2.175219,4.61707 -4.996839,5.80347 -4.170603,1.7536 -6.525091,1.4032 -9.882327,-1.47074 -3.425985,-2.93279 -16.062975,0.20878 -16.062975,3.99328 0,2.49995 -4.957575,5.6519 -8.889652,5.6519 -5.31979,0 -9.110348,-3.90067 -9.110348,-9.375 0,-8.42704 8.979399,-12.27241 15.916133,-6.81597 2.899374,2.28065 3.835577,2.40348 8.606073,1.12918 3.471864,-0.92742 6.592683,-2.92474 8.881299,-5.68403 3.618156,-4.36227 6.716614,-5.21443 10.872549,-2.99024 1.809247,0.96828 3.983041,0.46877 9.292824,-2.13539 9.61423,-4.71527 9.55707,-4.82643 -4.066697,-7.90855 -5.73088,-1.29651 -6.922557,-1.22703 -8.848426,0.51585 -1.224084,1.10778 -3.968614,2.01415 -6.098956,2.01415 -3.689667,0 -5.673743,-1.62988 -9.679799,-7.95177 -0.6875,-1.08494 -3.896727,-2.66206 -7.131615,-3.50473 -5.152056,-1.34207 -6.172096,-1.26924 -8.223426,0.58719 -5.15435,4.66462 -15.269959,0.007 -15.269959,-7.0303 0,-10.47887 15.07927,-13.34295 18.505375,-3.51482 0.992937,2.84835 2.611975,4.08464 7.456442,5.69371 5.771139,1.91686 6.436262,1.91294 9.870897,-0.0583 4.848271,-2.78253 9.816366,-1.50892 12.216126,3.13171 1.517849,2.93519 3.319475,3.93705 10.178078,5.65988 4.58357,1.15135 8.60207,1.82507 8.93,1.49715 0.32792,-0.32792 -2.06896,-3.44552 -5.3264,-6.92799 -4.71021,-5.03559 -6.734961,-6.33176 -9.890868,-6.33176 -5.719515,0 -9.43965,-3.94302 -9.43965,-10.0052 0,-6.81761 -5.998574,-13.7448 -11.902256,-13.7448 -6.039183,0 -8.18199,-1.16334 -9.96836,-5.41186 -1.136513,-2.70297 -1.238042,-4.80484 -0.354519,-7.33931 3.730574,-10.70153 19.85279,-6.22261 18.030156,5.00897 -0.563711,3.47374 0.04009,4.92043 3.782549,9.06289 3.514787,3.89045 5.34472,4.92931 8.682882,4.92931 6.003656,0 9.720786,3.98856 8.830426,9.47524 -0.59429,3.66216 0.0364,4.99125 4.97512,10.48428 3.11062,3.45976 6.06993,6.29048 6.57625,6.29048 0.50631,0 0.41858,-3.79688 -0.19497,-8.4375 -0.94683,-7.16148 -1.67069,-8.87654 -4.78641,-11.3406 -4.20265,-3.32365 -4.97503,-9.20897 -1.68559,-12.84376 1.72639,-1.90764 1.78262,-3.09932 0.43118,-9.13821 -1.05728,-4.72439 -2.28096,-7.17519 -3.82768,-7.6661 -3.0468,-0.96702 -7.338778,-6.57475 -7.338778,-9.58856 0,-1.33517 1.701658,-4.12923 3.781458,-6.20904 4.45876,-4.45875 8.84133,-4.14311 13.40604,0.96554 3.51626,3.93525 3.551,6.73223 0.13755,11.07173 -2.48063,3.15361 -2.56492,3.89229 -1.16035,10.16857 0.83302,3.72236 2.06232,6.76793 2.73177,6.76793 2.44348,0 7.35353,6.22187 7.35353,9.31818 0,1.75 -1.18261,4.36443 -2.62803,5.80985 -2.29557,2.29557 -2.51819,3.50722 -1.75973,9.57773 1.53805,12.31013 2.1469,12.80609 6.67891,5.44063 3.30867,-5.37726 3.84848,-7.2714 3.21007,-11.26378 -0.90366,-5.65117 0.93917,-9.79162 5.05443,-11.35624 2.16006,-0.82126 3.2966,-2.742 4.43814,-7.50049 1.36766,-5.70105 1.29286,-6.66353 -0.68798,-8.85233 -3.39262,-3.74881 -2.85558,-9.77463 1.18057,-13.24638 4.19357,-3.60716 6.95667,-3.69002 11.22005,-0.33645 5.79037,4.55471 4.08966,14.54794 -2.85075,16.75074 -1.5941,0.50595 -2.86605,2.78334 -3.85355,6.89967 -1.25367,5.22585 -1.17713,6.56833 0.51192,8.97979 3.02295,4.31588 2.49965,9.19355 -1.30762,12.18835 -1.81147,1.4249 -4.3551,2.59073 -5.65253,2.59073 -1.43631,0 -3.76356,2.21482 -5.95013,5.66268 -3.13008,4.93563 -3.5428,6.66094 -3.21448,13.4375 l 0.37668,7.77482 11.05452,12.32059 c 6.07997,6.77632 11.23639,13.10445 11.45866,14.0625 0.97136,4.18654 -3.51801,0.89453 -14.68045,-10.76505 z"
         id="path4161"
         inkscape:connector-curvature="0"
         sodipodi:nodetypes="ccssssssssssssssssssssssssscsssssssssssssssssssssssssssssssssssssssscsccc" />
      <path
         style="fill:#06799f;fill-opacity:1"
         d="m 145.30008,260.10213 c -12.01525,-14.27932 -20.7254,-22.626 -23.97294,-22.97257 -1.90849,-0.20367 -4.93643,-0.72681 -6.72876,-1.16253 -4.1028,-0.99741 -17.366228,6.08413 -17.366228,9.27208 0,6.39753 -7.91047,9.93728 -12.640755,5.65643 -1.737933,-1.57281 -3.595159,-1.81223 -8.657125,-1.11604 -5.61924,0.77285 -6.772542,1.44231 -9.006029,5.22779 -1.408831,2.38779 -3.885542,4.84483 -5.503801,5.4601 -3.677527,1.39819 -8.580806,-0.34125 -10.366288,-3.67746 -4.996253,-9.33558 6.380609,-17.58095 14.1661,-10.26686 2.465239,2.31597 3.795085,2.64302 7.802324,1.9188 6.440369,-1.16395 8.876452,-2.53777 9.830574,-5.54395 1.258854,-3.9663 5.204964,-5.47729 9.576045,-3.66672 3.308151,1.37028 4.54611,1.14979 11.080823,-1.97351 11.61138,-5.54973 10.95342,-7.62868 -3.34466,-10.56802 -6.865455,-1.41138 -8.085218,-1.34566 -11.403295,0.61438 -5.143373,3.03826 -9.794672,1.68102 -11.962118,-3.49053 -1.362337,-3.25055 -2.864586,-4.38322 -7.683067,-5.79287 -5.45817,-1.5968 -6.372228,-1.54622 -10.301847,0.57001 -5.156782,2.77712 -8.521965,2.70597 -11.787391,-0.2492 -3.528789,-3.19351 -2.656999,-10.08978 1.6834,-13.31649 2.946188,-2.19024 3.823668,-2.30337 7.156834,-0.92273 2.481886,1.02803 4.327567,3.03546 5.323712,5.79025 1.258014,3.47897 2.60383,4.57507 7.692663,6.26531 5.696111,1.89195 6.49339,1.89343 10.423306,0.0194 5.822711,-2.77666 6.38711,-2.65299 11.031128,2.4171 2.872802,3.13637 6.052818,4.97338 10.793585,6.23516 13.33815,3.55003 14.12503,1.99774 4.33468,-8.55111 -5.712723,-6.15531 -7.197182,-7.12574 -9.872912,-6.45418 -4.470963,1.12214 -8.529471,-3.16008 -8.162288,-8.61222 0.205626,-3.05327 -0.801302,-5.45437 -3.909124,-9.32164 -3.609355,-4.49136 -4.809384,-5.18461 -8.710084,-5.03177 -8.842729,0.3465 -13.746464,-5.81696 -9.964092,-12.52377 2.669816,-4.73405 8.106458,-6.06941 12.196743,-2.99577 2.690938,2.02209 3.311807,3.51103 3.328589,7.98245 0.01638,4.36322 0.897248,6.58753 4.271705,10.78659 3.656654,4.55021 4.916937,5.28989 9.013055,5.28989 5.774866,0 9.206408,4.08965 8.085958,9.6367 -0.59299,2.93573 0.3678,4.67635 6.06539,10.9883 8.25487,9.14501 9.70498,8.51082 8.19553,-3.58424 -0.88674,-7.10536 -1.73509,-9.26909 -4.92429,-12.55951 -4.29637,-4.43273 -4.8029,-7.56879 -1.89341,-11.72266 1.66244,-2.37346 1.74126,-3.84922 0.51986,-9.73271 -0.91693,-4.41678 -2.19586,-7.20073 -3.52207,-7.66672 -7.406939,-2.60261 -9.880424,-10.38189 -4.81429,-15.14127 3.7902,-3.56071 7.74789,-3.44057 11.53875,0.35029 3.76984,3.76984 3.91397,7.74539 0.4158,11.46903 -2.25195,2.39708 -2.52016,3.70513 -1.77651,8.6641 0.67698,4.51446 1.9889,6.93176 5.77738,10.64523 5.62867,5.51722 5.91711,7.02519 2.23833,11.702 -2.33286,2.96575 -2.5613,4.38008 -1.8418,11.40286 1.46409,14.29034 3.53582,15.3566 9.51898,4.89913 3.36979,-5.88977 3.8205,-7.65103 3.07984,-12.035 -0.81887,-4.84682 -0.58778,-5.39136 4.11047,-9.68598 6.46152,-5.90641 8.13784,-13.33613 4.15218,-18.40309 -3.41776,-4.34497 -3.29113,-7.40546 0.4617,-11.15828 3.85109,-3.85109 8.19945,-3.9161 11.71392,-0.17512 4.74208,5.04771 3.05932,12.12185 -3.42085,14.38085 -2.78265,0.97003 -4.01843,2.46423 -5.01941,6.06898 -1.80672,6.50646 -1.69164,8.34503 0.7934,12.67498 2.76951,4.82559 0.81785,9.80798 -4.28024,10.92705 -1.91401,0.42014 -4.10188,0.94932 -4.86194,1.17596 -0.76006,0.22664 -3.16318,3.56829 -5.34027,7.42588 -3.2894,5.82849 -3.72116,7.45698 -2.55487,9.63623 0.77192,1.44234 1.07638,4.25795 0.67659,6.25692 -0.64133,3.20664 0.45045,4.94761 9.27428,14.78897 5.50065,6.13495 10.54941,11.49329 11.21946,11.90741 0.67007,0.41412 1.80362,1.84662 2.519,3.18333 2.07068,3.86909 -0.69581,2.86916 -4.46933,-1.61541 z"
         id="path4159"
         inkscape:connector-curvature="0"
         sodipodi:nodetypes="cssssssssssssssssssssssssssssssssssssssssssssssssssssssssssssssssscscc" />
      <path
         style="fill:#0b5fa5;fill-opacity:1"
         d="m 145.30008,260.10213 c -12.01525,-14.27932 -20.7254,-22.626 -23.97294,-22.97257 -1.90849,-0.20367 -4.93643,-0.72681 -6.72876,-1.16253 -4.1028,-0.99741 -17.366228,6.08413 -17.366228,9.27208 0,6.32976 -8.777605,10.26902 -12.605216,5.65703 -1.308887,-1.57711 -2.98469,-1.82623 -7.899361,-1.17427 -7.559599,1.00282 -9.237186,1.86686 -11.176318,5.75637 -3.777889,7.57769 -14.569105,5.23469 -14.569105,-3.16326 0,-3.00095 0.828084,-4.85531 2.778133,-6.22118 3.731241,-2.61346 6.242856,-2.45077 10.198332,0.66061 2.709066,2.13095 4.279183,2.44655 8.606073,1.72984 6.806534,-1.12745 9.30822,-2.48526 10.292462,-5.58633 1.258854,-3.9663 5.204964,-5.47729 9.576045,-3.66672 3.308151,1.37028 4.54611,1.14979 11.080823,-1.97351 11.61138,-5.54973 10.95342,-7.62868 -3.34466,-10.56802 -6.865455,-1.41138 -8.085218,-1.34566 -11.403295,0.61438 -5.105433,3.01585 -9.834919,1.67666 -11.893215,-3.36766 -1.299792,-3.18543 -2.862923,-4.31017 -8.430668,-6.0662 -6.656742,-2.09949 -6.928525,-2.08969 -10.419355,0.37567 -4.427429,3.12683 -9.162592,1.89339 -11.97634,-3.11966 -1.74093,-3.10168 -1.685625,-3.63595 0.709953,-6.85849 1.428875,-1.92214 4.055126,-3.66949 5.836112,-3.88301 3.711054,-0.44492 8.3896,3.49512 8.3896,7.06531 0,1.72093 1.842309,2.8599 7.297769,4.51168 6.755557,2.04542 7.586801,2.06012 11.187925,0.19791 5.408581,-2.79689 6.256864,-2.60697 10.874839,2.43468 2.872802,3.13637 6.052818,4.97338 10.793585,6.23516 13.33815,3.55004 14.12503,1.99775 4.33468,-8.55111 -5.712723,-6.15531 -7.197182,-7.12574 -9.872912,-6.45417 -4.484501,1.12553 -8.529515,-3.15943 -8.160136,-8.64419 0.21515,-3.19468 -0.818294,-5.48384 -4.509058,-9.98793 -4.363819,-5.32547 -5.150406,-5.77539 -8.875297,-5.07659 -7.771991,1.45803 -12.392207,-7.64672 -6.745674,-13.29325 5.402447,-5.40245 14.741234,0.44673 12.702199,7.95579 -0.81927,3.01709 -0.231252,4.27881 4.223536,9.0625 4.276699,4.59246 5.95803,5.55743 9.683114,5.55743 5.51104,0 8.928838,4.20547 7.831778,9.6367 -0.59299,2.93573 0.3678,4.67635 6.06539,10.9883 8.25487,9.14501 9.70498,8.51082 8.19553,-3.58424 -0.88674,-7.10536 -1.73509,-9.26909 -4.92429,-12.55951 -4.29637,-4.43273 -4.8029,-7.56879 -1.89341,-11.72266 2.96864,-4.23833 0.34995,-15.78103 -4.24272,-18.70107 -4.38018,-2.78495 -5.174737,-4.01259 -5.197707,-8.03073 -0.02463,-4.30837 2.984427,-7.27679 7.376407,-7.27679 6.75148,0 10.18377,8.52828 5.23481,13.00702 -2.18015,1.97302 -2.24152,2.69565 -0.76741,9.03704 1.20193,5.17052 2.73084,7.92631 6.11964,11.03032 5.22534,4.78623 5.51918,6.56493 1.85423,11.22416 -2.33286,2.96575 -2.5613,4.38008 -1.8418,11.40286 1.46409,14.29034 3.53582,15.3566 9.51898,4.89913 3.39578,-5.93521 3.82385,-7.6312 3.06291,-12.13516 -0.83515,-4.94326 -0.62941,-5.44991 3.68365,-9.07094 3.34488,-2.8082 5.02427,-5.56407 6.27123,-10.2911 1.57636,-5.97568 1.52694,-6.61521 -0.66438,-8.59833 -5.03389,-4.5556 -1.49026,-13.005 5.45423,-13.005 9.01504,0 9.83297,12.79878 0.99717,15.60316 -1.70487,0.54111 -2.8653,2.77284 -3.94091,7.57917 -1.35502,6.05489 -1.26744,7.28957 0.78776,11.10585 2.91967,5.42149 1.20008,10.25197 -4.06065,11.40674 -1.91401,0.42014 -4.10188,0.94932 -4.86194,1.17596 -0.76006,0.22664 -3.16318,3.56829 -5.34027,7.42588 -3.2894,5.82849 -3.72116,7.45698 -2.55487,9.63623 0.77192,1.44234 1.07638,4.25795 0.67659,6.25692 -0.64133,3.20664 0.45045,4.94761 9.27428,14.78897 5.50065,6.13495 10.54941,11.49329 11.21946,11.90741 0.67007,0.41412 1.80362,1.84662 2.519,3.18333 2.07068,3.86909 -0.69581,2.86916 -4.46933,-1.61541 z"
         id="path4157"
         inkscape:connector-curvature="0"
         sodipodi:nodetypes="sssssssssssssssssssssssssssssssssssssssssssssssssssssssssssssssscss" />
      <path
         style="fill:#8bc34a;fill-opacity:1"
         d="m 147.85715,262.89792 c -0.4249,-0.6875 -0.21004,-1.25 0.47746,-1.25 0.6875,0 1.59764,0.5625 2.02254,1.25 0.4249,0.6875 0.21004,1.25 -0.47746,1.25 -0.6875,0 -1.59764,-0.5625 -2.02254,-1.25 z m -94.096865,-4.44588 c -5.702476,-3.99417 -2.220138,-14.30412 4.831427,-14.30412 1.129311,0 3.57777,1.19915 5.441019,2.66478 2.680185,2.10824 3.226395,3.34831 2.615271,5.9375 -0.886441,3.75567 -4.971112,7.64772 -8.026198,7.64772 -1.145862,0 -3.333546,-0.87565 -4.861519,-1.94588 z m 30.440971,-9.20014 c -2.488889,-2.75019 -1.187484,-6.59637 2.98811,-8.83108 3.493456,-1.86964 8.792786,0.82044 8.792786,4.46346 0,6.17486 -7.596608,8.99121 -11.780896,4.36762 z m 31.046254,-14.81062 c -2.63798,-1.7818 -2.803,-6.2999 -0.32716,-8.9574 5.09641,-5.47036 12.07006,-1.27216 10.41372,6.26915 -0.68037,3.09768 -1.39556,3.64202 -4.76374,3.62575 -2.17975,-0.0105 -4.57502,-0.4324 -5.32282,-0.9375 z m -36.24898,-9.65871 c -2.429245,-3.7075 -1.625869,-6.54677 2.268414,-8.01697 5.785833,-2.18432 11.646897,4.42597 7.746104,8.7363 -3.03743,3.35633 -7.556745,3.03171 -10.014518,-0.71933 z m -31.198197,-7.45283 c -3.743376,-3.74338 -3.834039,-5.62104 -0.477456,-9.88825 4.474844,-5.68884 11.409091,-3.70896 13.571105,3.87484 1.03748,3.63923 0.799069,4.29523 -2.385024,6.5625 -4.631972,3.29826 -6.981762,3.17777 -10.708625,-0.54909 z m 42.750554,-10.46775 c -3.870594,-4.27695 -2.201617,-10.21407 2.871266,-10.21407 9.378947,0 9.321187,12.26767 -0.05876,12.48293 -0.409072,0.009 -1.674697,-1.0116 -2.812506,-2.26886 z m 41.618953,-2.8305 c -2.01319,-3.76167 -0.53568,-7.95982 3.43871,-9.77068 3.06451,-1.39628 3.67643,-1.26923 5.65498,1.17418 2.98812,3.69019 2.7932,6.91872 -0.55952,9.26705 -3.82098,2.67632 -6.87124,2.43666 -8.53417,-0.67055 z m -20.89847,-5.57169 c -3.42843,-2.40136 -3.6028,-6.93813 -0.3788,-9.85581 2.89222,-2.61742 6.97434,-1.69131 8.96843,2.03468 1.09735,2.05043 0.89172,3.22034 -1.01489,5.77403 -3.08048,4.12598 -4.18179,4.42362 -7.57474,2.0471 z M 67.362361,184.27813 c -5.034198,-5.0342 -1.590127,-13.88021 5.404066,-13.88021 4.230401,0 8.42078,5.55957 7.415319,9.83825 -1.02057,4.34297 -1.693693,4.97307 -6.295948,5.89352 -2.979751,0.59595 -4.510362,0.16151 -6.523437,-1.85156 z m 72.587679,-9.27327 c -5.15433,-5.48654 -2.14701,-13.35694 5.10375,-13.35694 4.19206,0 7.18344,3.0405 7.15922,7.27679 -0.0231,4.04751 -0.99621,5.64646 -4.58618,7.53608 -3.78689,1.99326 -4.57725,1.84337 -7.67679,-1.45593 z m -35.84289,-6.10062 c -3.39563,-1.92554 -4.333311,-3.53566 -4.355857,-7.47953 -0.02463,-4.30837 2.984427,-7.27679 7.376407,-7.27679 7.14556,0 10.0958,8.47371 4.71139,13.53211 -3.27334,3.07514 -4.20715,3.22299 -7.73194,1.22421 z"
         id="path4155"
         inkscape:connector-curvature="0"
         sodipodi:nodetypes="sssssssssssssssssscsssssssssssscsssssssssssssssssscsssssss" />
      <path
         style="fill:#d36060;fill-opacity:1"
         d="m 53.760285,258.45204 c -5.702476,-3.99417 -2.220138,-14.30412 4.831427,-14.30412 1.129311,0 3.57777,1.19915 5.441019,2.66478 2.680185,2.10824 3.226395,3.34831 2.615271,5.9375 -0.886441,3.75567 -4.971112,7.64772 -8.026198,7.64772 -1.145862,0 -3.333546,-0.87565 -4.861519,-1.94588 z m -5.959952,-41.1223 c -1.6875,-1.6875 -3.068181,-3.86164 -3.068181,-4.83143 0,-3.2019 5.065463,-8.35039 8.215725,-8.35039 7.306465,0 10.90288,10.33289 4.953254,14.23124 -4.23438,2.77447 -6.513717,2.53766 -10.100798,-1.04942 z m 19.562028,-33.05161 c -5.034198,-5.0342 -1.590127,-13.88021 5.404066,-13.88021 4.230401,0 8.42078,5.55957 7.415319,9.83825 -1.02057,4.34297 -1.693693,4.97307 -6.295948,5.89352 -2.979751,0.59595 -4.510362,0.16151 -6.523437,-1.85156 z m 72.587679,-9.27327 c -5.15433,-5.48654 -2.14701,-13.35694 5.10375,-13.35694 4.19206,0 7.18344,3.0405 7.15922,7.27679 -0.0231,4.04751 -0.99621,5.64646 -4.58618,7.53608 -3.78689,1.99326 -4.57725,1.84337 -7.67679,-1.45593 z m -35.84289,-6.10062 c -3.39563,-1.92554 -4.333311,-3.53566 -4.355857,-7.47953 -0.02463,-4.30837 2.984427,-7.27679 7.376407,-7.27679 7.14556,0 10.0958,8.47371 4.71139,13.53211 -3.27334,3.07514 -4.20715,3.22299 -7.73194,1.22421 z"
         id="path4153"
         inkscape:connector-curvature="0" />
      <path
         style="fill:#9e330e;fill-opacity:1"
         d="m 53.050887,256.86199 c -2.713993,-2.99892 -2.6256,-6.82265 0.217191,-9.39534 4.704401,-4.25742 12.714074,-1.09272 12.714074,5.02346 0,5.84728 -8.879307,8.84925 -12.931265,4.37188 z m -5.104449,-39.67836 c -4.423045,-4.42304 -1.423407,-11.78571 4.801638,-11.78571 4.439637,0 6.132836,1.34831 7.568756,6.02708 1.860241,6.06136 -7.643504,10.48552 -12.370394,5.75863 z m 18.45139,-35.05475 c -1.918295,-2.92769 -1.949864,-3.61294 -0.302321,-6.5625 3.439586,-6.15782 13.636645,-4.28615 13.636645,2.503 0,4.82483 -2.353941,7.32854 -6.890164,7.32854 -3.260212,0 -4.820983,-0.79176 -6.44416,-3.26904 z m 72.780202,-8.25909 c -1.07023,-1.52798 -1.94588,-3.77798 -1.94588,-5 0,-2.98363 4.40148,-7.22187 7.5,-7.22187 3.21945,0 7.5,4.28054 7.5,7.5 0,3.43863 -4.36144,7.5 -8.05412,7.5 -1.73902,0 -3.89202,-1.19626 -5,-2.77813 z m -36.94588,-7.22187 c -1.375,-1.375 -2.499998,-3.625 -2.499998,-5 0,-3.21945 4.280548,-7.5 7.499998,-7.5 3.09853,0 7.5,4.23825 7.5,7.22187 0,6.77468 -7.73664,10.04148 -12.5,5.27813 z"
         id="path4151"
         inkscape:connector-curvature="0" />
      <path
         style="fill:#ff2c00;fill-opacity:1"
         d="m 55.010285,257.20204 c -3.760249,-2.63378 -3.5935,-7.46224 0.346867,-10.04407 2.894839,-1.89677 3.355161,-1.89677 6.25,0 3.940367,2.58183 4.107116,7.41029 0.346867,10.04407 -1.527973,1.07023 -3.090313,1.94588 -3.471867,1.94588 -0.381554,0 -1.943894,-0.87565 -3.471867,-1.94588 z m -5.012252,-39.45039 c -3.865312,-1.42988 -3.939552,-9.13764 -0.107762,-11.18835 3.615483,-1.93495 8.28047,0.28362 9.321983,4.43334 1.331804,5.30633 -3.518378,8.86203 -9.214218,6.75501 z m 19.60234,-34.05233 c -4.326566,-2.14553 -4.660914,-7.56057 -0.6299,-10.20179 5.528618,-3.62249 10.692021,0.59145 9.309874,7.59795 -0.598531,3.03413 -5.093278,4.38247 -8.679974,2.60384 z m 70.069467,-10.91783 c -3.15571,-5.89651 3.17696,-12.45557 8.69329,-9.00406 2.50425,1.56689 3.28501,7.43686 1.30628,9.82108 -2.28923,2.75837 -8.35115,2.26308 -9.99957,-0.81702 z m -37.37495,-6.68298 c -1.97873,-2.38422 -1.19797,-8.25419 1.30629,-9.82108 5.51633,-3.45151 11.849,3.10755 8.69328,9.00406 -1.64842,3.0801 -7.71033,3.57539 -9.99957,0.81702 z"
         id="path4149"
         inkscape:connector-curvature="0" />
    </g>
  </g>
</svg>
