<?xml version="1.0" encoding="UTF-8" standalone="no"?>
<!-- Created with Inkscape (http://www.inkscape.org/) -->

<svg
   xmlns:dc="http://purl.org/dc/elements/1.1/"
   xmlns:cc="http://creativecommons.org/ns#"
   xmlns:rdf="http://www.w3.org/1999/02/22-rdf-syntax-ns#"
   xmlns:svg="http://www.w3.org/2000/svg"
   xmlns="http://www.w3.org/2000/svg"
   xmlns:sodipodi="http://sodipodi.sourceforge.net/DTD/sodipodi-0.dtd"
   xmlns:inkscape="http://www.inkscape.org/namespaces/inkscape"
   width="210mm"
   height="297mm"
   viewBox="0 0 744.09448819 1052.3622047"
   id="svg2"
   version="1.1"
   inkscape:version="0.91 r13725"
   sodipodi:docname="hoja.svg">
  <defs
     id="defs4" />
  <sodipodi:namedview
     id="base"
     pagecolor="#ffffff"
     bordercolor="#666666"
     borderopacity="1.0"
     inkscape:pageopacity="0.0"
     inkscape:pageshadow="2"
     inkscape:zoom="1.4"
     inkscape:cx="349.48129"
     inkscape:cy="734.53386"
     inkscape:document-units="px"
     inkscape:current-layer="layer1"
     showgrid="false"
     inkscape:window-width="1920"
     inkscape:window-height="1017"
     inkscape:window-x="-8"
     inkscape:window-y="-8"
     inkscape:window-maximized="1" />
  <metadata
     id="metadata7">
    <rdf:RDF>
      <cc:Work
         rdf:about="">
        <dc:format>image/svg+xml</dc:format>
        <dc:type
           rdf:resource="http://purl.org/dc/dcmitype/StillImage" />
        <dc:title></dc:title>
      </cc:Work>
    </rdf:RDF>
  </metadata>
  <g
     inkscape:label="Capa 1"
     inkscape:groupmode="layer"
     id="layer1">
    <g
       id="g4147"
       transform="matrix(0.60938266,4.9334995,-3.9252189,0.76591626,2326.1007,-740.77038)">
      <path
         style="fill:#6b6b6b"
         d="m 247.56696,472.36221 c -355.52083,382.85714 -177.760417,191.42857 0,0 z"
         id="path4163"
         inkscape:connector-curvature="0"
         sodipodi:nodetypes="cc" />
      <path
         style="fill:#666666"
         d="m 151.73983,545.85981 c 1.22718,-1.75205 3.59419,-1.60004 2.50585,0.16093 -0.29666,0.47999 0.56511,0.87272 1.91503,0.87272 1.44202,0 2.20874,-0.3975 1.85881,-0.96369 -0.73324,-1.18642 3.18538,-4.58738 5.33488,-4.63012 0.86279,-0.0172 2.82213,-1.08588 4.35409,-2.37494 1.53197,-1.28906 3.3573,-2.37706 4.05631,-2.41777 0.699,-0.0407 0.0739,-0.51003 -1.38924,-1.04296 -1.88775,-0.68761 -2.963,-0.66612 -3.70313,0.074 -0.57364,0.57364 -2.3835,1.04297 -4.02193,1.04297 -1.63842,0 -3.50414,0.63282 -4.14604,1.40625 -0.64189,0.77344 -1.97643,1.40625 -2.96564,1.40625 -0.9892,0 -4.53942,0.88549 -7.88938,1.96774 -3.71557,1.20039 -7.04389,1.72854 -8.53475,1.35436 -3.45057,-0.86603 -1.72455,-1.90779 5.18281,-3.12816 7.15134,-1.26346 9.5619,-2.78379 7.17787,-4.52704 -1.2535,-0.91659 -2.34306,-0.87896 -5.35878,0.18505 -4.15791,1.46705 -10.11213,1.79003 -10.11213,0.54859 0,-0.43287 1.07848,-1.27842 2.39662,-1.879 2.33389,-1.06338 2.45135,-3.32147 0.12636,-2.42929 -0.64183,0.2463 -2.60872,-0.61588 -4.37086,-1.91594 -1.76214,-1.30007 -3.75474,-2.36376 -4.428,-2.36376 -0.67327,0 -1.22412,-0.88948 -1.22412,-1.97663 0,-1.607 -0.41226,-1.87317 -2.20457,-1.42333 -2.83376,0.71124 -3.61288,-0.11372 -2.34494,-2.48287 0.95168,-1.77824 1.60631,-1.85006 11.42638,-1.25364 7.00432,0.42542 11.15657,1.11736 12.67485,2.11218 1.43538,0.94049 3.37157,1.2988 5.3146,0.98349 1.88207,-0.30542 3.79797,0.0232 4.98594,0.85533 1.06114,0.74325 5.41734,1.78873 9.68045,2.32327 4.26312,0.53455 8.30141,1.42861 8.97398,1.98681 0.67258,0.55818 2.70712,1.13265 4.52119,1.27659 1.81408,0.14393 4.96153,1.12862 6.99434,2.18817 3.52793,1.83886 6.54028,1.82431 6.54028,-0.0316 0,-0.47665 -0.73828,-1.13218 -1.64062,-1.45675 -0.90235,-0.32457 -3.84223,-2.643 -6.53307,-5.15207 -3.75811,-3.50424 -5.38835,-4.44356 -7.03125,-4.05132 -1.64923,0.39375 -3.74829,-0.83441 -9.17006,-5.36537 -7.23687,-6.04786 -13.125,-9.13699 -13.125,-6.88588 0,0.64407 1.6875,2.68592 3.75,4.53748 3.42327,3.07311 4.75089,5.37863 3.09727,5.37863 -1.43382,0 -7.86217,-5.08074 -10.03854,-7.93412 -1.83646,-2.40772 -3.39794,-3.25068 -7.57572,-4.08969 -2.89435,-0.58127 -6.73342,-1.75487 -8.53126,-2.608 -1.79783,-0.85313 -3.48976,-1.33018 -3.75982,-1.06011 -0.27007,0.27006 1.64345,2.62551 4.25227,5.23433 4.60152,4.60152 5.7831,6.70759 3.76319,6.70759 -1.16966,0 -5.58239,-4.26385 -5.58239,-5.39406 0,-1.0457 -5.32348,-2.92847 -9.07357,-3.20908 -1.6389,-0.12263 -4.17015,0.34279 -5.625,1.03427 -5.46578,2.59785 -10.99075,4.43879 -15.77018,5.25469 l -3.75,0.64015 2.32347,1.54015 c 4.17515,2.76754 11.2332,10.86904 11.25195,12.91542 0.02,2.18164 6.67894,8.78096 8.86032,8.78096 2.08244,0 4.40337,2.83139 3.82212,4.66276 -0.70886,2.23341 3.18126,4.68496 9.78807,6.16846 6.38822,1.43441 11.28953,0.84781 12.97069,-1.55237 z m 25.43459,-4.1988 c 0.2159,-0.21591 0.14859,-0.63651 -0.14958,-0.93467 -0.29816,-0.29816 -1.73957,0.14561 -3.20312,0.98617 l -2.66101,1.52828 2.81058,-0.59362 c 1.54582,-0.32649 2.98722,-0.77026 3.20313,-0.98616 z m 42.97054,-8.43955 c -0.89339,-0.8934 -2.68453,0.55368 -2.01872,1.63097 0.39574,0.64031 0.92012,0.62414 1.59341,-0.0491 0.55196,-0.55196 0.74335,-1.26378 0.42531,-1.58181 z m -0.17697,-8.38362 c -0.50458,-2.68965 -0.21126,-3.35334 2.25957,-5.11272 2.9699,-2.11476 3.796,-4.70666 1.50012,-4.70666 -1.62627,0 -4.13561,2.39943 -5.29949,5.06736 -0.47122,1.08014 -1.36736,2.67748 -1.99145,3.54963 -0.92196,1.28846 -0.81102,1.94343 0.59181,3.49352 2.30966,2.55216 3.6518,1.50605 2.93944,-2.29113 z m -8.96353,-10.34346 c 0,-1.54694 -1.48166,-1.8083 -2.34375,-0.41342 -0.76454,1.23705 0.35645,2.99257 1.47103,2.30371 0.47999,-0.29665 0.87272,-1.14728 0.87272,-1.89029 z m 12.66146,-14.48167 c 1.9945,-2.2039 1.40971,-3.23341 -1.34081,-2.36043 -1.08501,0.34438 -1.94565,1.41897 -1.94565,2.42936 0,2.3254 1.14128,2.30147 3.28646,-0.0689 z m -2.34896,-14.02377 c 0,-1.82002 0.64725,-3.12591 1.875,-3.78298 1.03125,-0.55191 1.875,-1.4105 1.875,-1.90798 0,-1.31244 -3.35886,-1.11022 -4.44078,0.26735 -1.18548,1.50942 -2.20568,6.86916 -1.45114,7.6237 1.29524,1.29525 2.14192,0.42558 2.14192,-2.20009 z"
         id="path4161"
         inkscape:connector-curvature="0"
         sodipodi:nodetypes="ccsscscssscssssscssssssssssscscssssssssssssscsssssscsssssccccscsccscccsssscsssssscssccssssss" />
      <path
         style="fill:#5c5c5c"
         d="m 185.69196,566.40254 c 0,-1.23225 -2.13073,-0.46064 -2.59787,0.94078 -0.22835,0.68507 0.20024,0.8946 1.11329,0.54422 0.81652,-0.31333 1.48458,-0.98158 1.48458,-1.485 z m 26.79942,-11.7861 c 0.34656,-1.92733 1.29176,-4.65141 2.10044,-6.05351 1.49128,-2.5856 1.11232,-4.24206 -0.71249,-3.11427 -0.54992,0.33988 -0.99987,1.2452 -0.99987,2.01182 0,0.76663 -1.05468,3.37509 -2.34375,5.79659 -2.91305,5.47215 -3.06468,7.21319 -0.50909,5.84548 1.07447,-0.57504 2.09574,-2.43384 2.46476,-4.48611 z m -16.95567,-1.16048 c -0.31867,-0.51563 -0.76545,-0.9375 -0.99283,-0.9375 -0.22738,0 -0.41342,0.42187 -0.41342,0.9375 0,0.51562 0.44678,0.9375 0.99283,0.9375 0.54606,0 0.7321,-0.42188 0.41342,-0.9375 z m 12.25302,-4.79352 c 0.32505,-0.52593 0.40621,-1.141 0.18038,-1.36683 -0.66374,-0.66374 -6.33965,1.57636 -6.33965,2.50207 0,0.46517 -0.63281,0.84578 -1.40625,0.84578 -1.95336,0 -1.76858,1.65707 0.23438,2.10177 1.60285,0.35587 6.15455,-2.17903 7.33114,-4.08279 z m -44.67315,-2.34001 c 4.78865,-0.94437 11.31342,-3.4327 19.99826,-7.62665 7.08984,-3.42372 12.89062,-6.53371 12.89062,-6.91108 0,-0.37737 -1.31236,-1.66744 -2.91635,-2.86681 -1.60399,-1.19937 -6.03368,-5.09963 -9.84375,-8.66724 -4.50344,-4.21687 -6.9274,-5.93906 -6.9274,-4.92188 0,2.41293 -1.26897,1.91834 -6.94855,-2.70821 -2.885,-2.3501 -7.03695,-5.08071 -9.22657,-6.06802 -2.18962,-0.98731 -5.24675,-2.64766 -6.79363,-3.68967 -3.40175,-2.29149 -5.06203,-2.39412 -6.51804,-0.40292 -1.00657,1.37656 -1.60222,1.36301 -7.03018,-0.16 -5.31771,-1.49208 -6.03947,-1.51489 -6.98575,-0.22077 -0.58042,0.79378 -2.52585,1.75619 -4.32317,2.13868 -1.79732,0.3825 -6.31731,2.15041 -10.04442,3.92868 -3.72711,1.77827 -8.36774,3.45507 -10.3125,3.72624 -6.16307,0.85934 -6.33807,1.13979 -2.48257,3.97851 5.56611,4.09819 9.06057,8.21443 10.66335,12.5607 1.15893,3.14268 2.50587,4.57655 6.58876,7.01404 3.65598,2.18263 5.26684,3.77195 5.60077,5.52591 1.38171,7.25737 14.62412,9.31215 34.61112,5.37049 z m 13.71647,-12.50276 c -1.51651,-1.67573 -2.54619,-1.77877 -12.68297,-1.2691 l -11.03245,0.55471 -0.4648,-3.65278 c -0.64272,-5.05117 0.26542,-5.63444 5.92621,-3.80621 2.65609,0.85782 5.94094,1.56202 7.2997,1.5649 3.56956,0.008 9.59361,1.82773 11.12832,3.36244 0.77772,0.77772 3.21768,1.31983 5.94037,1.31983 3.32442,0 4.62053,0.36634 4.62053,1.30595 0,2.94392 -8.20308,3.41789 -10.73491,0.62026 z m -34.90828,-6.52704 c -0.25721,-0.98358 -1.2724,-1.99877 -2.25598,-2.25598 -3.15503,-0.82506 -1.91326,-2.51819 1.84688,-2.51819 4.28693,0 5.85274,1.47586 4.72454,4.45312 -0.97526,2.57365 -3.67387,2.77441 -4.31544,0.32105 z m 76.58069,12.51425 c 0,-0.80387 -0.42187,-1.20084 -0.9375,-0.88217 -0.51562,0.31867 -0.9375,0.97639 -0.9375,1.46158 0,0.48519 0.42188,0.88217 0.9375,0.88217 0.51563,0 0.9375,-0.65771 0.9375,-1.46158 z m 2.8125,-6.13872 c 0,-1.0712 -2.54226,-1.0954 -3.20043,-0.0305 -0.27422,0.44371 -0.25788,1.04745 0.0364,1.34165 0.73156,0.73162 3.16406,-0.27641 3.16406,-1.31118 z m 7.67578,-0.54012 c -0.67676,-0.27081 -1.48535,-0.23751 -1.79687,0.074 -0.31153,0.31153 0.24219,0.5331 1.23046,0.4924 1.09215,-0.045 1.31429,-0.26713 0.56641,-0.5664 z m -7.24249,-6.62521 c 1.60084,-1.86047 1.94781,-2.90432 1.24649,-3.75 -1.09766,-1.32357 0.56541,-3.98437 2.49034,-3.98437 1.99822,0 5.03455,-4.11854 5.70205,-7.73438 0.59102,-3.20153 0.46309,-3.51562 -1.43197,-3.51562 -1.69217,0 -1.98168,0.39556 -1.54959,2.11717 0.71255,2.83898 -0.77638,5.30956 -2.28855,3.79739 -0.67566,-0.67566 -0.80361,-1.75921 -0.3312,-2.80467 0.42339,-0.937 0.79581,-2.54739 0.82761,-3.57864 0.0417,-1.35468 0.70818,-1.87984 2.40153,-1.89242 2.12157,-0.0157 2.35199,-0.40086 2.43067,-4.0622 0.0689,-3.20633 0.63076,-4.51208 2.71048,-6.29913 2.43567,-2.09292 2.58576,-2.62061 2.09573,-7.36848 -0.35928,-3.48116 -0.17703,-5.24352 0.57077,-5.51938 0.83476,-0.30793 0.82985,-0.69091 -0.0204,-1.59464 -1.08547,-1.15366 -3.08999,0.59079 -7.47616,6.50623 -1.61864,2.18298 -2.66317,0.46042 -1.40082,-2.31013 0.59938,-1.3155 1.10474,-3.53213 1.12302,-4.92583 0.0183,-1.39371 0.63613,-3.58871 1.37302,-4.87777 2.05059,-3.58714 1.7218,-4.0401 -2.44852,-3.37324 -2.41314,0.38588 -4.34152,0.21245 -5.15625,-0.46372 -0.71581,-0.59407 -1.33054,-0.71206 -1.36607,-0.2622 -0.32087,4.06295 -0.97732,6.48035 -2.05142,7.55446 -1.07332,1.07331 -1.68714,0.64353 -3.90101,-2.73141 -2.28761,-3.48731 -2.56224,-4.63986 -2.12417,-8.91436 0.2767,-2.70006 0.1123,-5.15075 -0.36536,-5.44595 -0.47767,-0.29521 -0.86848,-1.35559 -0.86848,-2.35641 0,-2.14463 -1.19956,-2.35689 -2.75153,-0.48688 -0.85154,1.02604 -0.84153,1.75645 0.0435,3.17364 1.65808,2.655 -0.60492,8.27338 -2.64908,6.57689 -0.92102,-0.76439 -1.182,-2.05972 -0.79989,-3.97026 0.95116,-4.75581 -1.18773,-1.50688 -3.7055,5.62857 -1.77824,5.0396 -2.28324,8.34972 -2.27542,14.91462 0.008,7.4381 0.16568,8.23205 1.32409,6.70299 0.72273,-0.95397 1.73486,-1.47443 2.24916,-1.15658 1.38219,0.85424 2.38586,-1.31895 1.17047,-2.53434 -1.41228,-1.4123 -1.32041,-3.48082 0.1546,-3.48082 0.65885,0 1.8426,0.73828 2.63058,1.64062 0.78797,0.90235 2.5606,2.47257 3.93919,3.48938 1.37858,1.01681 2.91507,3.02072 3.41441,4.45312 0.49933,1.43241 1.35171,2.60438 1.89415,2.60438 0.54245,0 0.98627,1.05469 0.98627,2.34375 0,4.56952 -6.83756,1.59458 -9.88655,-4.30153 -0.77638,-1.50134 -1.82263,-2.72972 -2.32502,-2.72972 -1.71756,0 -0.91467,2.75591 2.01287,6.90924 4.20406,5.96436 2.57664,7.80211 -2.10895,2.38153 -3.31482,-3.8348 -3.5707,-3.96462 -3.52983,-1.79077 0.0767,4.07798 2.23189,9.84368 3.68002,9.84494 0.9579,8.3e-4 1.37621,1.03936 1.37621,3.41668 0,4.04094 2.60363,7.36338 5.77031,7.36338 1.76051,0 2.19844,0.50153 2.19844,2.5177 0,2.06141 3.09628,6.8573 4.42714,6.8573 0.19267,0 1.34856,-1.16016 2.56865,-2.57813 z m -7.6393,-9.8248 c -0.53934,-1.17058 -1.53479,-3.297 -2.21211,-4.72539 -1.67404,-3.53036 -0.0993,-5.14042 2.7618,-2.82368 1.33563,1.08153 2.11272,2.78999 2.16898,4.76852 0.1147,4.03435 -1.41848,5.60244 -2.71867,2.78055 z m 2.59253,-10.4877 c -0.0407,-0.98827 0.18086,-1.54199 0.49239,-1.23047 0.31152,0.31152 0.34482,1.12012 0.074,1.79688 -0.29927,0.74787 -0.52142,0.52573 -0.56639,-0.56641 z m -1.00267,-13.90625 c -1.24162,-2.96859 -3.30326,-5.39062 -4.58853,-5.39062 -0.60045,0 -1.50617,-1.09009 -2.01272,-2.42243 -1.05389,-2.77192 -0.2193,-5.05959 1.11937,-3.06828 0.54445,0.80988 0.64557,-0.0904 0.27835,-2.47804 l -0.57675,-3.75 3.4833,4.04587 c 2.18537,2.53832 3.56568,5.15828 3.70437,7.03125 0.12158,1.64196 0.53121,4.14554 0.91029,5.5635 0.85109,3.18355 -1.02364,3.56271 -2.31768,0.46875 z m -6.57135,-18.46029 c 0,-0.48519 0.42188,-1.14291 0.9375,-1.46158 0.51563,-0.31867 0.9375,0.0783 0.9375,0.88217 0,0.80387 -0.42187,1.46158 -0.9375,1.46158 -0.51562,0 -0.9375,-0.39698 -0.9375,-0.88217 z m 30.23438,26.32061 c 1.88633,-4.0848 1.99548,-4.81344 0.72098,-4.81344 -0.5058,0 -1.18434,1.05469 -1.50788,2.34375 -0.54391,2.16712 -1.46713,2.7961 -3.54686,2.41643 -0.44999,-0.0821 -0.55545,0.53521 -0.23438,1.3719 0.32107,0.8367 0.58376,1.8954 0.58376,2.35267 0,1.8973 2.45927,-0.36874 3.98438,-3.67131 z M 223.6075,461.684 c -0.6658,-0.6658 -3.24251,2.60704 -3.19685,4.06052 0.0172,0.54598 0.87146,-0.0163 1.89844,-1.24949 1.02699,-1.23321 1.61127,-2.49817 1.29841,-2.81103 z"
         id="path4159"
         inkscape:connector-curvature="0"
         sodipodi:nodetypes="sssssscsssscssscsssssssssssssssssssssssssssscsscsssssssssssssscccccsccscsssssssccsssscsscsssssssssssssscsssssssssssssssssssccsssssscssssssscsssssssssssscsssscss" />
      <path
         style="fill:#4a4a4a"
         d="m 183.21257,611.31036 c 1.6957,-1.69571 5.79492,-4.38619 9.10937,-5.97884 3.31445,-1.59266 8.08013,-4.71477 10.5904,-6.93803 2.51028,-2.22327 5.88184,-4.749 7.49237,-5.61273 2.13696,-1.14606 3.9881,-3.6948 6.85045,-9.43199 6.70095,-13.43117 7.73955,-23.04557 3.35896,-31.09416 -1.83153,-3.36514 -2.23866,-4.8494 -1.40625,-5.12687 1.42755,-0.47585 1.45427,-1.52236 0.15804,-6.19055 l -1.00308,-3.61251 -2.03856,1.85391 c -1.1212,1.01965 -4.56981,2.7799 -7.66356,3.91166 -10.37047,3.79373 -16.20663,8.47113 -23.41433,18.76543 -5.14336,7.34593 -6.68889,11.5373 -7.96484,21.60028 -0.96604,7.61876 -0.9141,9.82945 0.35931,15.29255 0.81874,3.51246 1.48861,8.46949 1.48861,11.01562 0,2.54613 0.225,4.62933 0.5,4.62933 0.27501,0 1.8874,-1.3874 3.58311,-3.0831 z m 2.65596,-16.23889 c -0.14437,-3.84042 0.5673,-5.42992 5.07552,-11.33601 3.71683,-4.8693 4.02983,-6.842 1.08562,-6.842 -2.05172,0 -2.04099,-0.0546 0.46875,-2.38169 1.4127,-1.30993 2.56854,-2.86108 2.56854,-3.44701 0,-1.37502 6.64754,-11.0463 7.59266,-11.0463 0.39517,0 1.01558,-0.94922 1.37869,-2.10938 0.36312,-1.16015 1.71893,-3.375 3.0129,-4.92187 2.26124,-2.70317 2.32606,-2.72139 1.66762,-0.46875 -0.3768,1.28906 -1.49323,3.48682 -2.48097,4.88392 -0.98774,1.39709 -1.7959,3.13118 -1.7959,3.85354 0,0.72237 -1.06411,2.88145 -2.36469,4.79796 -3.2278,4.75643 -7.01031,12.34588 -7.01031,14.0659 0,1.02785 -7.24385,15.76102 -8.90217,18.106 -0.0928,0.13121 -0.22611,-1.28823 -0.29626,-3.15431 z m 16.84645,-7.86551 c 0,-1.28906 0.2128,-1.81641 0.47287,-1.17188 0.26007,0.64454 0.26007,1.69922 0,2.34375 -0.26007,0.64454 -0.47287,0.11719 -0.47287,-1.17187 z m 7.95045,-7.96875 c 0.29681,-0.77344 0.70544,-1.40625 0.90809,-1.40625 0.20264,0 0.36844,0.63281 0.36844,1.40625 0,0.77344 -0.40863,1.40625 -0.90808,1.40625 -0.49943,0 -0.66524,-0.63281 -0.36845,-1.40625 z m 6.3823,-14.61293 c -0.34645,-0.56056 -0.1604,-1.48869 0.41342,-2.0625 0.76608,-0.76609 1.04331,-0.49528 1.04331,1.01918 0,2.2636 -0.48699,2.61239 -1.45673,1.04332 z m -54.22161,-17.73189 c 4.69723,-0.9299 11.65817,-3.03846 15.46875,-4.68567 7.8605,-3.39788 18.60614,-9.48751 18.63071,-10.55815 0.009,-0.39251 -5.15159,-5.91847 -11.46799,-12.27992 -9.28952,-9.35577 -12.649,-12.10527 -17.57813,-14.38653 -17.10199,-7.915 -31.36606,-9.57456 -35.57845,-4.13936 -0.79904,1.03098 -2.71842,2.17006 -4.2653,2.53127 -1.54687,0.3612 -5.60359,2.08539 -9.01492,3.83154 -3.41133,1.74614 -8.79023,3.63064 -11.95312,4.18777 -3.16289,0.55712 -5.75071,1.37893 -5.75071,1.82622 0,0.44729 1.17344,1.42006 2.60764,2.16171 3.69046,1.90841 11.45486,10.45779 11.45486,12.61294 0,1.97014 5.44568,7.17915 10.15461,9.71329 2.10213,1.13128 2.89706,2.18274 2.733,3.61498 -0.52302,4.56588 10.31141,8.69636 20.39364,7.77479 3.09375,-0.28278 9.46819,-1.27498 14.16541,-2.20488 z m 67.86584,-13.15167 c 5.23681,-3.72247 9.05621,-1.9177 -2.53979,-1.44526 -10.53253,0.41538 -12.231,0.8962 -10.50634,2.97427 0.70793,0.85301 1.48527,1.02097 2.1549,0.46562 0.57612,-0.47779 5.47717,-1.37538 10.89123,-1.99463 z m -9.07847,-5.83164 c 1.24122,-1.16015 4.64428,-4.1475 7.56236,-6.63855 2.91809,-2.49105 6.18866,-6.28793 7.26795,-8.4375 1.07928,-2.14958 2.99716,-5.28841 4.26196,-6.97518 1.26479,-1.68678 2.81745,-5.60547 3.45034,-8.7082 0.63291,-3.10272 1.44833,-5.34373 1.81205,-4.98001 0.36372,0.36373 0.66131,-1.54326 0.66131,-4.23776 0,-3.02733 -0.35818,-4.67771 -0.9375,-4.31967 -0.51562,0.31868 -0.9375,-0.23235 -0.9375,-1.22449 0,-0.99214 -0.76491,-2.81001 -1.6998,-4.0397 -0.93489,-1.22969 -2.45658,-4.26653 -3.38154,-6.74851 -1.65444,-4.43945 -7.2141,-12.63344 -9.49539,-13.99458 -0.64045,-0.38213 -2.33157,-3.96806 -3.75804,-7.96875 -1.42648,-4.00068 -2.91131,-7.63885 -3.29963,-8.08481 -0.38833,-0.44597 -1.34097,0.39778 -2.11698,1.875 -0.77602,1.47721 -4.96505,6.27178 -9.30895,10.65459 -6.22929,6.28507 -8.35605,9.15723 -10.06583,13.59375 -4.53061,11.75591 -3.10981,31.30095 3.29184,45.284 1.76527,3.85585 12.72409,17.05975 14.15906,17.05975 0.15264,0 1.29307,-0.94922 2.53429,-2.10938 z"
         id="path4157"
         inkscape:connector-curvature="0"
         sodipodi:nodetypes="sssssssscssssssssssscssssssssscssssscssscscsssscsssssssssssssccsscssssssscssssssssssss" />
      <path
         style="fill:#06799f;fill-opacity:1"
         d="m 244.24499,478.20216 c -1.26069,-1.26069 -2.92958,-4.09881 -3.70865,-6.30693 -1.77227,-5.02313 -4.44672,-9.37972 -8.9577,-14.59176 -2.07676,-2.3995 -4.34689,-6.56576 -5.55387,-10.19274 -1.12277,-3.37393 -2.37893,-6.34301 -2.79144,-6.59797 -0.41253,-0.25496 -1.804,1.11155 -3.09214,3.03669 -1.28815,1.92514 -5.74781,6.94986 -9.91035,11.16606 -6.85192,6.94024 -7.77244,8.31565 -9.72545,14.53125 -2.85231,9.07776 -2.81347,21.40492 0.10249,32.52764 2.95642,11.27709 5.34185,15.74949 12.0018,22.50204 3.24213,3.2872 5.89478,6.34222 5.89478,6.78893 0,0.4467 -0.81239,1.31954 -1.8053,1.93962 -1.66347,1.03885 -1.68285,1.21697 -0.24682,2.26702 1.4455,1.05698 1.43544,1.27555 -0.13869,3.01495 -0.93345,1.03144 -2.81265,2.15533 -4.17602,2.4975 -4.50082,1.12965 -12.32016,5.25478 -17.05504,8.99748 -4.70053,3.71556 -13.22504,14.78184 -15.55448,20.1924 -2.25168,5.22995 -4.11976,20.94802 -3.05075,25.66911 0.52539,2.32031 1.16809,7.91016 1.42821,12.42187 0.26012,4.51172 0.68265,8.20313 0.93894,8.20313 0.25629,0 2.42916,-1.74312 4.82859,-3.87361 2.39944,-2.13048 5.82967,-4.49655 7.62274,-5.25793 4.11504,-1.74734 11.10393,-6.53128 13.81802,-9.45851 1.14298,-1.23275 3.45727,-2.9332 5.14285,-3.77878 4.22507,-2.11952 10.54842,-13.45073 12.57492,-22.53375 1.94774,-8.73005 1.32842,-18.96223 -1.63988,-27.0936 -10.83516,-14.5916 24.77481,-28.29268 23.05324,-66.07011 z m -83.86553,69.70532 c 10.52269,-1.85951 22.06753,-6.24547 31.07881,-11.807 2.91366,-1.79824 5.86678,-3.28294 6.5625,-3.29933 0.93686,-0.0221 0.87416,-0.32744 -0.24179,-1.17732 -0.8287,-0.63114 -3.6873,-3.88725 -6.35244,-7.23582 -13.14734,-16.51873 -31.42712,-27.03449 -47.60376,-27.38487 -7.70752,-0.16695 -11.11532,0.80664 -12.35622,3.53012 -0.6625,1.45404 -1.82879,2.29938 -3.17637,2.30227 -1.17121,0.003 -5.0826,1.52388 -8.69198,3.38082 -3.60937,1.85692 -9.06926,3.89076 -12.13308,4.51966 -3.06381,0.62888 -5.73387,1.63332 -5.93346,2.23209 -0.19959,0.59876 1.06875,1.93335 2.81853,2.96575 3.82395,2.25618 11.02926,10.86407 11.02926,13.1762 0,2.00198 5.0958,6.63591 9.13899,8.31065 2.27636,0.9429 3.00846,1.87855 3.23035,4.12852 0.21238,2.15351 1.10042,3.38261 3.41839,4.73123 6.51981,3.79329 14.45334,4.23516 29.21227,1.62703 z m 52.67578,-13.84194 c -0.67676,-0.27081 -1.48535,-0.23751 -1.79687,0.074 -0.31153,0.31153 0.24219,0.5331 1.23046,0.4924 1.09215,-0.045 1.31429,-0.26713 0.56641,-0.5664 z m 7.63697,-2.7093 c -0.49058,-1.27844 0.26582,-2.41772 3.03244,-4.56742 21.27851,-40.71673 32.92456,-0.33999 0.46797,5.70137 -2.21651,0.4433 -2.99159,0.19222 -3.50049,-1.13395 z"
         id="path4155"
         inkscape:connector-curvature="0"
         sodipodi:nodetypes="cssscssssssssscssssssssssccssccssscssssssssssccsccccc" />
      <path
         style="fill:#9e330e;fill-opacity:1"
         d="m 246.70947,483.78056 c -0.42501,-3.98596 -1.11898,-5.88103 -2.57483,-7.03125 -1.09614,-0.86603 -2.30299,-2.62929 -2.68187,-3.91835 -1.24591,-4.23887 -4.13669,-9.22638 -8.33547,-14.38135 -2.39386,-2.93902 -5.10959,-7.7892 -6.44998,-11.5194 -1.27336,-3.54365 -2.91711,-6.56381 -3.6528,-6.71145 -0.74465,-0.14946 -2.67113,1.78952 -4.34582,4.37399 -1.65451,2.55334 -5.51392,6.81318 -8.57646,9.46632 -11.98805,10.38542 -15.29726,26.57107 -9.87572,48.30314 2.49238,9.99066 5.76713,16.0903 11.85831,22.08764 3.02067,2.97414 5.49213,6.14021 5.49213,7.03571 0,1.47293 -0.85088,1.5723 -8.92301,1.04206 -4.90765,-0.32237 -9.71797,-1.01159 -10.68962,-1.53159 -0.97163,-0.52 -3.29655,-3.02966 -5.16649,-5.57702 -1.86992,-2.54736 -6.86819,-7.89658 -11.10724,-11.88716 -12.2853,-11.5652 -27.8959,-17.98257 -41.39419,-17.01677 -5.45407,0.39024 -6.84696,0.84489 -8.45291,2.75915 -1.05753,1.26055 -4.03216,3.05921 -6.61029,3.99701 -2.57812,0.9378 -6.39214,2.68728 -8.4756,3.88772 -2.08345,1.20044 -6.4805,2.72163 -9.77121,3.38043 -3.29071,0.6588 -6.14881,1.70246 -6.35133,2.31924 -0.20252,0.61677 1.29734,2.17283 3.33303,3.4579 3.88777,2.45425 10.48386,9.82939 10.48386,11.7221 0,2.41512 3.38463,6.03669 8.161,8.7323 3.84156,2.16805 4.89831,3.22761 4.49292,4.50488 -1.0015,3.15544 4.73699,6.92749 12.89354,8.47526 3.7055,0.70315 7.46897,0.56313 15.23379,-0.56674 14.79746,-2.15323 24.36424,-5.62872 39.73761,-14.43617 1.92593,-1.10338 4.13895,-1.62937 5.625,-1.33693 1.34744,0.26515 5.39788,0.77041 9.00097,1.12278 5.00092,0.4891 6.62092,1.00506 6.84621,2.18052 0.21863,1.14077 -1.45334,2.20793 -6.45179,4.11795 -9.76088,3.72984 -17.36885,9.28153 -23.14264,16.88761 -7.58236,9.98865 -9.42368,14.43645 -10.69824,25.84214 -0.97771,8.74932 -0.91291,10.74983 0.5493,16.9589 1.10308,4.68408 1.44486,8.45919 1.02147,11.28255 -0.8781,5.8556 0.62425,6.37306 5.48765,1.89014 2.19233,-2.02083 6.60722,-5.07128 9.81083,-6.7788 3.20363,-1.7075 8.16572,-5.15308 11.02689,-7.65681 2.86115,-2.50374 5.61957,-4.55225 6.12981,-4.55225 3.4975,0 11.10073,-13.89913 13.48714,-24.65522 1.98413,-8.94299 1.34427,-16.95766 -2.09452,-26.23501 -1.4927,-4.02711 -2.04722,-6.74199 -1.49071,-7.2985 20.63498,-7.48117 -5.67823,20.91821 26.64128,-52.73667 z m -25.75115,47.35356 c -0.72664,-1.17574 1.05475,-3.02698 6.55293,-6.80983 3.90999,-2.69015 11.61821,-11.34917 11.61821,-13.05131 0,-0.42054 1.47657,-2.53195 3.28125,-4.69202 3.0424,-7.91841 2.97579,36.77505 -21.45239,24.55342 z"
         id="path4153"
         inkscape:connector-curvature="0"
         sodipodi:nodetypes="csssscsssssssssssssssssssssssssssssssssssscccssccc" />
      <path
         style="fill:#0b5fa5;fill-opacity:1"
         d="m 244.10561,475.91861 c -1.04213,-0.92477 -2.64128,-3.73326 -3.5537,-6.24109 -0.9124,-2.50782 -3.78047,-7.35938 -6.37347,-10.78125 -2.59299,-3.42186 -5.53401,-8.33094 -6.53556,-10.90906 -1.00156,-2.57813 -2.19276,-5.63672 -2.64712,-6.79688 -1.20596,-3.07931 -3.06387,-2.58776 -5.3152,1.40625 -1.08991,1.9336 -5.31944,6.67969 -9.39894,10.54688 -5.9016,5.59446 -7.81735,8.10402 -9.37514,12.28109 -3.70312,9.92964 -4.45515,15.90044 -3.22721,25.62267 2.12196,16.80061 6.72077,27.06309 16.07774,35.87832 3.51806,3.31438 4.02871,4.19231 2.87245,4.93848 -0.77343,0.49913 -2.88281,0.72254 -4.6875,0.49648 -1.80468,-0.22605 -5.74076,-0.66912 -8.74683,-0.9846 -3.42362,-0.35929 -5.9334,-1.15783 -6.71777,-2.13739 -0.68872,-0.86009 -3.10524,-3.88296 -5.37005,-6.71749 -5.7753,-7.22809 -17.4686,-17.08566 -23.89607,-20.14463 -16.1275,-7.67543 -30.60889,-8.93661 -36.03604,-3.13839 -1.36703,1.4605 -3.05453,2.65676 -3.75,2.65835 -0.69547,0.002 -4.21761,1.50774 -7.82699,3.347 -3.60937,1.83927 -9.25908,3.92283 -12.5549,4.63014 -7.434327,1.59547 -8.902081,2.84831 -5.84798,4.99172 5.29779,3.71805 12.39712,10.97127 12.91998,13.20004 0.74803,3.1886 4.62867,7.31057 8.99853,9.55813 2.60119,1.33786 3.51562,2.40045 3.51562,4.08517 0,4.73552 8.90862,8.86518 19.21875,8.909 6.2588,0.0266 20.10017,-2.45067 27.13018,-4.85565 6.31658,-2.16091 17.44079,-7.51358 21.34284,-10.26959 2.38165,-1.68217 3.13542,-1.71958 12.42187,-0.61661 5.4375,0.64584 9.88636,1.5137 9.88636,1.9286 0,0.4149 -1.16015,1.22711 -2.57812,1.80492 -15.2084,6.19732 -23.36901,12.22171 -30.17519,22.27618 -5.62776,8.31363 -6.46738,10.50953 -8.02215,20.98033 -1.32149,8.89977 -1.3249,10.56526 -0.0342,16.75187 0.78823,3.77829 1.43349,9.48143 1.43391,12.67365 4.3e-4,3.19223 0.39159,6.04559 0.86924,6.34079 0.47766,0.29521 3.27187,-1.5664 6.20935,-4.13693 2.93749,-2.57052 6.23808,-4.95586 7.33465,-5.30075 2.77787,-0.87367 11.84287,-7.15536 14.57907,-10.10272 1.25005,-1.3465 2.78298,-2.44818 3.40654,-2.44818 1.84653,0 7.43274,-6.79364 10.08211,-12.26129 5.61261,-11.58307 6.99688,-26.74479 3.33143,-36.48871 -1.06681,-2.83594 -2.00226,-6.42048 -2.07876,-7.96565 l -0.13911,-2.80939 c 27.92731,1.98424 27.2561,-40.49764 23.25738,-60.19981 z m -22.78865,54.73097 c 0,-0.82432 2.42578,-3.15063 5.39063,-5.16959 17.3296,-14.78944 25.87963,2.49263 -1.18666,6.09211 -3.46749,0.47527 -4.20399,0.31364 -4.20399,-0.92252 z"
         id="path4151"
         inkscape:connector-curvature="0"
         sodipodi:nodetypes="csssssssssssssssscssssssssssssssssssssssssccccccc" />
      <path
         style="fill:#4caf50;fill-opacity:1"
         d="m 246.62168,479.48008 c -0.41434,-1.75705 -1.42584,-3.57098 -2.24778,-4.03096 -0.82194,-0.45998 -1.49856,-1.34271 -1.5036,-1.96162 -0.0197,-2.42173 -4.98646,-11.66281 -8.53595,-15.88191 -3.37676,-4.01377 -4.60717,-6.43207 -8.35196,-16.41526 -1.65947,-4.424 -4.1175,-3.95947 -7.44103,1.40625 -1.51705,2.44922 -5.35193,6.76982 -8.52196,9.60134 -7.08122,6.32505 -9.69672,10.66316 -12.20601,20.24507 -2.38902,9.12265 -1.92884,18.4314 1.55464,31.44801 2.82537,10.55751 5.67162,15.66374 12.2753,22.02215 2.74238,2.6405 4.98613,5.11544 4.98613,5.49983 0,0.38441 -2.84765,0.4158 -6.32812,0.0697 -12.17801,-1.21072 -11.90666,-1.07952 -17.95388,-8.68091 -13.94161,-17.5247 -31.88401,-27.64939 -49.31175,-27.82606 -7.36948,-0.0747 -12.24676,1.50056 -12.94796,4.18194 -0.25864,0.98906 -1.2003,1.79826 -2.09259,1.79826 -0.89229,0 -5.04507,1.64878 -9.2284,3.66396 -4.18332,2.01518 -9.99941,4.14773 -12.92463,4.73901 -2.92522,0.59128 -5.866861,1.73569 -6.536978,2.54313 -1.035326,1.24748 -0.815957,1.76798 1.459988,3.46411 5.4126,4.0337 12.73932,11.80819 12.73932,13.51789 0,2.19971 5.79435,8.08875 9.44758,9.60196 1.90862,0.79058 2.73992,1.79119 2.73992,3.29796 0,2.78828 2.21059,4.94865 7.42286,7.25429 12.44658,5.50572 39.73883,0.31544 58.82814,-11.18758 l 5.46775,-3.29481 9.14063,1.118 c 5.02734,0.61491 9.14062,1.22498 9.14062,1.35572 0,0.13074 -3.05859,1.35826 -6.79687,2.72782 -12.4508,4.56148 -23.66826,15.05465 -30.67944,28.69854 -2.53806,4.93912 -4.74856,21.86931 -3.61094,27.65625 0.50682,2.57812 1.13703,8.48437 1.4005,13.125 0.26345,4.64062 0.83237,8.8074 1.26425,9.2595 0.95457,0.99923 6.16177,-2.09087 9.376,-5.56399 1.28027,-1.38338 4.01525,-3.2572 6.07775,-4.16404 4.21418,-1.85288 14.53125,-9.2777 14.53125,-10.45761 0,-0.42209 1.40003,-1.35242 3.11117,-2.06738 2.98583,-1.24756 7.55747,-7.06939 11.29348,-14.38187 4.5023,-8.81234 5.67156,-26.07858 2.36802,-34.96836 -1.93407,-5.20458 -3.21034,-10.30563 -2.5822,-10.32065 31.01304,4.6926 25.98995,-37.79447 25.17675,-57.09268 z m -24.36722,50.71437 c 0,-0.52831 1.58203,-1.90497 3.51563,-3.05925 5.27596,-3.14955 9.47054,-7.31519 13.14492,-13.05424 8.87545,-35.87573 5.12606,24.37524 -16.66055,16.11347 z"
         id="path4149"
         inkscape:connector-curvature="0"
         sodipodi:nodetypes="csssssssssscssssssssssssscsssssscsssssscccsccc" />
    </g>
  </g>
</svg>
