<?xml version="1.0" encoding="UTF-8" standalone="no"?>
<!-- Created with Inkscape (http://www.inkscape.org/) -->

<svg
   xmlns:dc="http://purl.org/dc/elements/1.1/"
   xmlns:cc="http://creativecommons.org/ns#"
   xmlns:rdf="http://www.w3.org/1999/02/22-rdf-syntax-ns#"
   xmlns:svg="http://www.w3.org/2000/svg"
   xmlns="http://www.w3.org/2000/svg"
   xmlns:sodipodi="http://sodipodi.sourceforge.net/DTD/sodipodi-0.dtd"
   xmlns:inkscape="http://www.inkscape.org/namespaces/inkscape"
   width="210mm"
   height="297mm"
   viewBox="0 0 744.09448819 1052.3622047"
   id="svg2"
   version="1.1"
   inkscape:version="0.91 r13725"
   sodipodi:docname="nodos.svg">
  <defs
     id="defs4" />
  <sodipodi:namedview
     id="base"
     pagecolor="#ffffff"
     bordercolor="#666666"
     borderopacity="1.0"
     inkscape:pageopacity="0.0"
     inkscape:pageshadow="2"
     inkscape:zoom="1.4"
     inkscape:cx="249.47296"
     inkscape:cy="575.31103"
     inkscape:document-units="px"
     inkscape:current-layer="layer1"
     showgrid="false"
     inkscape:window-width="1920"
     inkscape:window-height="1017"
     inkscape:window-x="-8"
     inkscape:window-y="-8"
     inkscape:window-maximized="1" />
  <metadata
     id="metadata7">
    <rdf:RDF>
      <cc:Work
         rdf:about="">
        <dc:format>image/svg+xml</dc:format>
        <dc:type
           rdf:resource="http://purl.org/dc/dcmitype/StillImage" />
        <dc:title></dc:title>
      </cc:Work>
    </rdf:RDF>
  </metadata>
  <g
     inkscape:label="Capa 1"
     inkscape:groupmode="layer"
     id="layer1">
    <ellipse
       style="opacity:1;fill:#0b5fa5;fill-opacity:1;fill-rule:evenodd;stroke:#000000;stroke-width:1.35128593;stroke-linecap:butt;stroke-linejoin:miter;stroke-miterlimit:4;stroke-dasharray:none;stroke-opacity:1"
       id="path4138"
       cx="51.759731"
       cy="489.73819"
       rx="34.933548"
       ry="55.470112" />
    <ellipse
       style="opacity:1;fill:#0b5fa5;fill-opacity:1;fill-rule:evenodd;stroke:#000000;stroke-width:1.35128593;stroke-linecap:butt;stroke-linejoin:miter;stroke-miterlimit:4;stroke-dasharray:none;stroke-opacity:1"
       id="path4142"
       cx="275.58267"
       cy="470.90308"
       rx="76.853806"
       ry="132.27489" />
    <ellipse
       style="opacity:1;fill:#0b5fa5;fill-opacity:1;fill-rule:evenodd;stroke:#000000;stroke-width:1.35128593;stroke-linecap:butt;stroke-linejoin:miter;stroke-miterlimit:4;stroke-dasharray:none;stroke-opacity:1"
       id="path4146"
       cx="586.24292"
       cy="455.60272"
       rx="139.73419"
       ry="170.67728" />
    <path
       style="fill:none;fill-rule:evenodd;stroke:#0b5fa5;stroke-width:7.90602016;stroke-linecap:butt;stroke-linejoin:miter;stroke-miterlimit:4;stroke-dasharray:none;stroke-opacity:1"
       d="m 89.094855,483.24378 c 74.498775,-1.53752 74.498775,-1.53752 74.498775,-1.53752"
       id="path4154"
       inkscape:connector-curvature="0" />
    <path
       style="fill:none;fill-rule:evenodd;stroke:#0b5fa5;stroke-width:13.62164497;stroke-linecap:butt;stroke-linejoin:miter;stroke-miterlimit:4;stroke-dasharray:none;stroke-opacity:1"
       d="m 367.70719,471.54056 c 75.24502,-0.75967 75.24502,-0.75967 75.24502,-0.75967 l 0,0"
       id="path4156"
       inkscape:connector-curvature="0" />
    <path
       style="opacity:1;fill:#ff2c00;fill-opacity:1;fill-rule:evenodd;stroke:#ff2c00;stroke-width:5.69372225;stroke-linecap:butt;stroke-linejoin:miter;stroke-miterlimit:4;stroke-dasharray:none;stroke-opacity:1"
       d="M 35.484057,540.16485 C 2.8152711,523.23692 1.9265158,458.17262 34.109468,439.53348 c 7.537512,-4.36543 19.967805,-4.34599 27.621916,0.0432 16.395069,9.40164 26.60309,36.5145 22.824819,60.62348 -2.95167,18.83452 -12.015415,33.74928 -24.31955,40.01883 -8.751682,4.4594 -16.07292,4.44337 -24.752596,-0.0542 z"
       id="path4158"
       inkscape:connector-curvature="0" />
    <path
       style="opacity:1;fill:#34d800;fill-opacity:1;fill-rule:evenodd;stroke:#34d800;stroke-width:5.44748592;stroke-linecap:butt;stroke-linejoin:miter;stroke-miterlimit:4;stroke-dasharray:none;stroke-opacity:1"
       d="m 255.70911,606.57827 c -41.07559,-5.58518 -75.11495,-47.51166 -84.78645,-104.43192 -2.99713,-17.63925 -3.33276,-37.4584 -0.95158,-56.19015 4.22361,-33.22562 18.04054,-64.31724 37.63542,-84.68954 25.62139,-26.63785 58.78446,-33.80443 88.95071,-19.22236 41.88447,20.24657 68.89188,78.69235 64.92866,140.50984 -2.09596,32.69223 -11.97115,62.2543 -28.56237,85.50334 -7.78044,10.90259 -19.28903,21.86195 -29.29544,27.89735 -15.19417,9.16443 -31.71421,12.82685 -47.91895,10.62344 z"
       id="path4160"
       inkscape:connector-curvature="0" />
    <path
       style="opacity:1;fill:#2196f3;fill-opacity:1;fill-rule:evenodd;stroke:#2196f3;stroke-width:5.1159687;stroke-linecap:butt;stroke-linejoin:miter;stroke-miterlimit:4;stroke-dasharray:none;stroke-opacity:1"
       d="m 576.39425,625.01486 c -35.5308,-3.36416 -67.963,-22.32917 -91.81487,-53.68952 -14.03771,-18.45675 -24.28986,-39.80636 -30.73054,-63.99492 -9.049,-33.9844 -8.72715,-72.53979 0.89176,-106.82645 15.492,-55.22133 53.73383,-97.33326 100.19401,-110.3337 21.42896,-5.99623 43.94652,-5.73002 65.17284,0.77053 21.38013,6.54763 40.77987,18.96823 57.71836,36.95389 3.78511,4.0191 11.84174,14.05657 14.96715,18.64705 14.95401,21.96374 25.05907,47.60007 29.64245,75.20243 1.96937,11.86006 2.69709,21.05613 2.68911,33.98163 -0.006,10.71001 -0.55646,18.94833 -1.91304,28.66319 -7.4012,53.00268 -35.21241,98.77126 -74.719,122.96423 -14.85184,9.09493 -29.45188,14.41313 -46.62454,16.98341 -3.97553,0.59503 -21.44112,1.06006 -25.47369,0.67823 z"
       id="path4162"
       inkscape:connector-curvature="0" />
  </g>
</svg>
